<svg xmlns="http://www.w3.org/2000/svg" viewBox="0 0 703 658.48"><defs><style>.cls-1{opacity:0.86;}.cls-2{fill:#ffabb4;}.cls-3{fill:#60190e;}.cls-4,.cls-8{fill:#52190e;}.cls-5{fill:#f59b72;}.cls-6{fill:#f2a486;}.cls-7{fill:#394ec9;}.cls-8,.cls-9{stroke:#1d4bb4;stroke-miterlimit:10;}.cls-8{stroke-width:5px;}.cls-9{fill:none;stroke-width:6px;}.cls-10{fill:#560101;}.cls-11{fill:#4a1904;}</style></defs><g id="Layer_2" data-name="Layer 2"><g id="Layer_1-2" data-name="Layer 1"><g class="cls-1"><rect class="cls-2" width="703" height="658"/></g><path class="cls-3" d="M310,65c46.64-50.69,148.5-23.5,144,59-1,18-3.43,95.32,58.67,112.5,55.23,15.28,110.61,94.4,106.77,173.78A36.16,36.16,0,0,1,612.53,430c-35.89,48.91-228.95,282.61-457-2.49-32-40-44-148.33,0-177.17s91-15.83,104-65.83S298.5,77.5,310,65Z"/><path class="cls-3" d="M317.5,57.89c-75,51.61-72.61,143.32-86.3,162.47s124.05,23.13,124.05,23.13Z"/><path class="cls-4" d="M254.32,198.28l23.15,12.22S298,217.82,282,226.91s-27.68-22.28-27.68-22.28Z"/><path class="cls-5" d="M375,222v46.78a72.83,72.83,0,0,1-19.75,2.72c-31.35,0-58.68-20-73-49.5Z"/><path class="cls-5" d="M439,174.5c0,45.69-27.28,84-64,94.28a72.83,72.83,0,0,1-19.75,2.72c-31.35,0-58.68-20-73-49.5a108.57,108.57,0,0,1-10.72-47.5c0-53.57,37.5-97,83.75-97S439,120.93,439,174.5Z"/><path class="cls-4" d="M258.45,188.79c-15.33,17-21.82,39.67-35.2,58a69,69,0,0,1-11.12,12.11,89.39,89.39,0,0,1-16.43,10.44c-5.85,3.06-11.83,5.93-17.45,9.42a101.38,101.38,0,0,0-14.59,11,102.68,102.68,0,0,0-24.21,32.73c-.81,1.74,1.77,3.27,2.59,1.52a100.52,100.52,0,0,1,21.12-29.68,99.16,99.16,0,0,1,13.93-11.26,172.2,172.2,0,0,1,17-9.55,118,118,0,0,0,16.94-10,66.49,66.49,0,0,0,12.12-11.76c7-8.73,12.15-18.72,17.24-28.64,5.78-11.27,11.6-22.75,20.14-32.24,1.29-1.43-.83-3.56-2.12-2.12Z"/><path class="cls-6" d="M293,181.5c0,15.74-9.63,28.5-21.5,28.5S250,197.24,250,181.5c0-5.93.53-16.94,2.87-21.5,3.86-7.54,11.23-7,18.63-7C283.37,153,293,165.76,293,181.5Z"/><path class="cls-5" d="M260,203s-11.72-42.36-.36-44.68S275.52,157.9,276,161,260,203,260,203Z"/><path d="M262.49,168.11c3.19-2.46,7.56-6,11.71-3.67,3.63,2.07,5.5,6.44,6.35,10.34.42,1.88,3.31,1.08,2.9-.8-1.05-4.75-3.59-10.07-8.16-12.35-5.49-2.75-10.67,1.08-14.92,4.36a1.52,1.52,0,0,0,0,2.12,1.54,1.54,0,0,0,2.12,0Z"/><rect x="392.26" y="142.47" width="30.08" height="9.48" rx="4.74" transform="translate(749.69 412.4) rotate(-162.11)"/><path class="cls-5" d="M429,355l-26,31-74.5,38.26L250,372.17s24-38.17,32-73.3V222h.22c14.35,29.54,41.68,49.5,73,49.5A72.83,72.83,0,0,0,375,268.78v48a11.32,11.32,0,0,0,.87,4.34l4.13,9.81C385,342.79,429,355,429,355Z"/><path class="cls-3" d="M328.21,82.67C367,87,374.7,84.43,391,111c46,75,56,54,56,54s0-87-47-87.5c-20.5-.22-.79-22.93-35.9-11.71S328.21,82.67,328.21,82.67Z"/><path class="cls-4" d="M377.69,295.43c-2.37-5.52-2.26-12-2.1-17.9a25.51,25.51,0,0,1,2.56-9.85l-5.23,1.65c-40.92,1.67-49-4.87-49-4.87S352,305.74,375,297.87l2.39-.84C377.47,296.49,377.56,296,377.69,295.43Z"/><path class="cls-4" d="M453.15,261c8.1,11.69,16.26,23.34,25.12,34.47a218.83,218.83,0,0,0,29,30.7A145.83,145.83,0,0,0,524,338.58a194.81,194.81,0,0,0,18.11,9.76c11.74,5.77,24.17,12,31.31,23.47,7.43,12,8.26,26.69,8.38,40.42,0,1.76,0,3.52,0,5.28a1.5,1.5,0,0,0,3,0c0-13.91-.14-28.44-5.78-41.42A45.22,45.22,0,0,0,567,359.83a85.82,85.82,0,0,0-16.71-10.76c-6-3.11-12.15-5.9-18.07-9.15a132.36,132.36,0,0,1-17.64-11.63,197.84,197.84,0,0,1-30.16-30c-9.14-11-17.45-22.7-25.63-34.44l-3-4.38c-1.1-1.58-3.7-.08-2.59,1.51Z"/><path class="cls-7" d="M522.15,320c-21.36-17.3-88.91-17.84-134.45-15.87-14.24,30-41.79,50.37-73.45,50.37-25.73,0-48.75-13.44-64.11-34.59-16.78,2.9-36.32,6.53-59.14,11.09C91,351,96,658,96,658H624C631.63,572.06,553,345,522.15,320Z"/><path class="cls-8" d="M194.73,648,214,477"/><path class="cls-9" d="M512.13,458l30.23,97.38a49.71,49.71,0,0,1,1.6,22.7L531,658"/><rect x="321.26" y="135.47" width="30.08" height="9.48" rx="4.74" transform="translate(-26.81 110.06) rotate(-17.89)"/><circle cx="350" cy="164" r="6"/><circle cx="401.5" cy="173.5" r="5.5"/><path d="M377.32,182.69a1.5,1.5,0,0,0,0-3,1.5,1.5,0,0,0,0,3Z"/><path d="M375.64,181.65a82,82,0,0,1,1.6,10.91,54.09,54.09,0,0,1,.11,10.72c-.45,3.62-4.05,3-6,.83-2.17-2.46-3.43-5.93-4.28-9.05a1.5,1.5,0,0,0-2.89.8c1,3.78,2.67,8.18,5.59,10.93,2.5,2.37,6.93,3.22,9.28.15,1.17-1.53,1.29-3.48,1.35-5.33.07-2.38,0-4.77-.08-7.15a89.2,89.2,0,0,0-1.83-13.61c-.41-1.89-3.3-1.09-2.9.8Z"/><path d="M341.58,216.79a43.89,43.89,0,0,0,6.14,8.33,81.79,81.79,0,0,0,7.35,7.31c5.2,4.45,11.58,7.65,18.59,6.62,1.9-.28,1.1-3.18-.8-2.9-6.31.94-12.18-2.66-16.67-6.72s-9.07-8.76-12-14.16c-.92-1.69-3.52-.18-2.59,1.52Z"/><path class="cls-3" d="M328.21,83c-18.71,48.83-17.21,57-53,72.32,0,0-19.69-16.45-3.69-30S302.77,83,302.77,83Z"/><path class="cls-3" d="M199.11,254.69a1.5,1.5,0,0,0,0-3,1.5,1.5,0,0,0,0,3Z"/><path class="cls-3" d="M249.66,168.39a1.5,1.5,0,0,0,0-3,1.5,1.5,0,0,0,0,3Z"/><path class="cls-3" d="M248.47,166.21a308.88,308.88,0,0,0-23.32,43.14c-6.1,13.82-10.61,28.34-17.23,41.93A86.94,86.94,0,0,1,194.39,272c-1.29,1.42.82,3.55,2.13,2.12,10-11,16-24.79,21.35-38.53,2.79-7.18,5.46-14.41,8.49-21.49q4.83-11.28,10.55-22.16,6.51-12.39,14.15-24.17c1.05-1.63-1.55-3.13-2.59-1.51Z"/><path class="cls-3" d="M446.67,155.42a134.9,134.9,0,0,0,26.83,42.07,147.73,147.73,0,0,0,19.32,17c7.36,5.5,15,10.7,21.67,17s12.51,14.06,15,23.12a1.5,1.5,0,0,0,2.89-.8c-4.75-17.1-19.44-28.27-33.08-38.28a177.38,177.38,0,0,1-20.4-16.79,131.07,131.07,0,0,1-29.37-44.13c-.71-1.77-3.62-1-2.89.79Z"/><path class="cls-4" d="M414.35,58.43C428.87,65,438.45,79,443.07,93.87c5.9,18.93,4.46,39.12,3.64,58.63s-.81,39.15,6.19,57.61c6.25,16.46,16.69,31.07,29,43.54,13.35,13.51,28.86,24.65,44.67,35.08q2.92,1.93,5.87,3.84c1.63,1.06,3.13-1.54,1.52-2.59-15.94-10.34-31.72-21.11-45.57-34.19-12.85-12.12-24-26.31-31-42.61a95.13,95.13,0,0,1-7.1-26.72,195.4,195.4,0,0,1-.7-30.12c.73-19.89,2.48-40.2-2.58-59.71-3.91-15.08-12.52-29.77-26-38.1a46.51,46.51,0,0,0-5.08-2.69c-1.75-.79-3.28,1.8-1.52,2.59Z"/><path class="cls-10" d="M535.62,281.76a1.5,1.5,0,0,0,0-3,1.5,1.5,0,0,0,0,3Z"/><path class="cls-10" d="M401.69,103.69c5.17,6.49,8.66,14.1,13.47,20.83a77.29,77.29,0,0,0,16.67,17c1.54,1.15,3-1.45,1.51-2.59A72.67,72.67,0,0,1,417,122c-4.6-6.68-8.14-14-13.2-20.39-1.21-1.51-3.32.62-2.13,2.12Z"/><path class="cls-10" d="M409.4,87.65q11.53,22.08,23.66,43.83c.94,1.69,3.53.18,2.59-1.51Q423.53,108.2,412,86.14c-.9-1.71-3.49-.2-2.59,1.51Z"/><path class="cls-11" d="M248.6,232.27c-.77,20.87-19.19,35.42-35.94,44.71-9.73,5.41-19.91,10-29.34,16a82.1,82.1,0,0,0-23.2,21.36,76.1,76.1,0,0,0-13.25,31.93c-.31,1.89,2.58,2.7,2.89.8a73.9,73.9,0,0,1,11.37-28.92,77,77,0,0,1,23-22.12c18-11.56,39.18-18.35,54.06-34.37,7.51-8.1,13-18.17,13.42-29.39.07-1.93-2.93-1.92-3,0Z"/></g></g></svg>