<svg xmlns="http://www.w3.org/2000/svg" viewBox="0 0 507.16 621.77"><defs><style>.cls-1{fill:#c48a55;}.cls-2{fill:#995526;}.cls-3{fill:#fff;stroke:#824923;stroke-width:4px;}.cls-3,.cls-7{stroke-miterlimit:10;}.cls-4{fill:#30261d;}.cls-5{fill:#bc6e39;}.cls-6{fill:#039393;}.cls-7{fill:none;stroke:#007461;stroke-width:3px;}.cls-8{fill:#824923;}</style></defs><g id="Layer_2" data-name="Layer 2"><g id="Layer_1-2" data-name="Layer 1"><path class="cls-1" d="M333.53,395.16c-2.18,31.48-40.3,56.55-87,56.55s-84.8-25-87-56.52c23.42-18.62,35.93-53.7,39.92-66.68V308.18a62.75,62.75,0,0,0,17.6,2.5h70.85a62.89,62.89,0,0,0,22.95-4.31v5.53c-.23,6.84.37,32.24.14,34.55.23,1.38,1,6.23,1.11,6.56C317.82,375.53,324.57,385.69,333.53,395.16Z"/><path class="cls-2" d="M310.86,306.37V341.9l-.23,0a191.67,191.67,0,0,1-49.91-16.31A148.22,148.22,0,0,1,235.52,310S307.7,312,310.86,306.37Z"/><path class="cls-1" d="M347.41,202.72s1.38-.91,3.43-2.06V170.4c-5.78,1.24-13-.79-24.06-11.05-40.27-37.23-74.7-15.68-110.24,3.5-20,10.8-40.41,20.84-62.41,19.2v16.38a66.2,66.2,0,0,1,10.17,9.22L168,219.19s4.58,15.05-11.92,24.54a10,10,0,0,1-1.91.86v3.14a62.89,62.89,0,0,0,62.93,63h70.85a62.85,62.85,0,0,0,62.93-63v-1.56c-6.72,6.07-11,5.33-8-13.88Zm-133.51.65a4.74,4.74,0,1,1,4.74-4.74A4.74,4.74,0,0,1,213.9,203.37Zm69.81,69.4c-4.81,6.25-11.06,11.08-19.15,12.17-9.42,1.26-17.87-4.34-24.87-12.17-13-14.53-21.05-36.69-21.05-36.69h79.54S294.9,258.22,283.71,272.77Zm24.35-69.4a4.74,4.74,0,1,1,4.74-4.74A4.74,4.74,0,0,1,308.06,203.37Z"/><path class="cls-1" d="M168,219.19s4.58,15.05-11.92,24.54a10,10,0,0,1-1.91.86V198.43a66.2,66.2,0,0,1,10.17,9.22Z"/><circle class="cls-1" cx="213.9" cy="198.63" r="4.74"/><circle class="cls-1" cx="308.06" cy="198.63" r="4.74"/><path class="cls-1" d="M347.41,202.72s1.38-.91,3.43-2.06v45.51c-6.72,6.07-11,5.33-8-13.88Z"/><path d="M245.38,175.29a145.91,145.91,0,0,0-20.7-11.79c-6.69-3.12-14.67-6.31-21.7-2.28a11.53,11.53,0,0,0-6,9.13,2.51,2.51,0,0,0,2.5,2.5,2.55,2.55,0,0,0,2.5-2.5c.22-2.95,3.1-5,5.74-5.72,3.9-1.07,8.15.43,11.72,2a138.45,138.45,0,0,1,23.42,13,2.51,2.51,0,0,0,3.42-.89,2.55,2.55,0,0,0-.89-3.42Z"/><path d="M282.26,179.6a138.45,138.45,0,0,1,23.42-13c3.57-1.52,7.82-3,11.72-2,2.64.72,5.51,2.77,5.74,5.72a2.57,2.57,0,0,0,2.5,2.5,2.52,2.52,0,0,0,2.5-2.5c-.56-7.33-7.91-11.55-14.75-11a35,35,0,0,0-11.49,3.47q-5.38,2.43-10.55,5.29-6,3.31-11.62,7.18a2.56,2.56,0,0,0-.89,3.42,2.52,2.52,0,0,0,3.42.89Z"/><circle cx="308.06" cy="198.63" r="4.74"/><circle cx="213.9" cy="198.63" r="4.74"/><path class="cls-3" d="M298.18,236.08s-3.28,22.14-14.47,36.69c-4.81,6.25-11.06,11.08-19.15,12.17-9.42,1.26-17.87-4.34-24.87-12.17-13-14.53-21.05-36.69-21.05-36.69Z"/><path class="cls-4" d="M154.3,157.65c-4-1.05-7.86-2.27-11.73-3.57-.76-.26-1.09.95-.33,1.21,3.87,1.3,7.78,2.51,11.73,3.57a.63.63,0,0,0,.33-1.21Z"/><path class="cls-4" d="M294.6,89.6q-21.92,13.64-42.84,28.76-6,4.35-11.92,8.81c-.63.48,0,1.56.63,1.08q20.61-15.54,42.26-29.63,6.21-4,12.5-7.94c.68-.43.06-1.51-.63-1.08Z"/><path d="M369.41,160.74c-6.93,2.31-11.8,8.2-18.57,9.66-5.78,1.24-13-.79-24.06-11.05-40.27-37.23-74.7-15.68-110.24,3.5-20,10.8-40.41,20.84-62.41,19.2a64.66,64.66,0,0,1-19.95-4.81C108.57,166.66,77,141.88,77.79,112.59c.46-18.18,13.32-36.66,31.62-45.4a57,57,0,0,1,57.78,5.49c-13.11-24-7.62-51.79,9.64-64.65,17.57-13.08,41.7-6.43,55,1.38a59.06,59.06,0,0,1,22,23.38c4.67-13.88,17.21-22.18,28.9-20.63,10.83,1.43,16.9,10.81,17.87,12.39,13.16-11.26,30.22-16.22,44-11,20.77,7.83,33.82,38.54,20.64,68.78,8.62-1.36,32.11-4,41.27,8.25C419.82,108.4,398.13,151.09,369.41,160.74Z"/><path class="cls-4" d="M369.24,160.13c-6.87,2.4-12.15,8.79-19.5,9.83-5.49.78-10.76-2-15.12-5a132.21,132.21,0,0,1-10.28-8.63,91.82,91.82,0,0,0-10.52-7.88,64.62,64.62,0,0,0-20.25-8.68c-27.46-6.25-53.33,9.55-76.5,22.08-15.85,8.57-32.53,17.33-50.73,19.33a64.32,64.32,0,0,1-26.62-2.59,99.31,99.31,0,0,1-20-9.3c-23.12-13.59-48.25-38.6-39.43-68C84.67,86.68,96,74.28,109.73,67.72a56.47,56.47,0,0,1,47-.37,59.43,59.43,0,0,1,10.17,5.87c.54.38,1.13-.35.86-.85C157.62,53.68,157.35,28,173.06,12.14c15.43-15.58,40.4-12.56,58-2.47a58.49,58.49,0,0,1,22.27,23.44.63.63,0,0,0,1.14-.15c2.9-8.42,9.15-15.87,17.67-19a22.25,22.25,0,0,1,22.95,4.86,28.74,28.74,0,0,1,5,6,.63.63,0,0,0,1,.13c12.52-10.61,31.28-17.5,46.84-9.3,13.22,7,20.48,22,21.81,36.44a61.43,61.43,0,0,1-5,29.88.64.64,0,0,0,.71.92c7.72-1.22,15.74-1.78,23.5-.61,8.21,1.24,16.52,4.89,19.55,13.2,2.62,7.21,1.34,15.4-.94,22.51a72.32,72.32,0,0,1-13.47,24c-6.62,7.9-15,14.72-24.85,18.08-.75.26-.43,1.47.34,1.21,18-6.14,32-23.14,38.37-40.62,2.72-7.41,4.4-15.92,2.32-23.71-2.2-8.25-9-13.13-17-15.12-9.13-2.26-18.9-1.62-28.11-.17l.71.92c7-16.15,7.56-35.15-.81-50.92a41.43,41.43,0,0,0-14.75-16.13,34.63,34.63,0,0,0-22.58-4.39c-10.23,1.35-19.69,6.29-27.5,12.91l1,.12c-3.47-5.61-9-10.33-15.41-12.1-8.53-2.35-17.52.89-23.82,6.79a33.69,33.69,0,0,0-8.68,13.71l1.14-.15A60.05,60.05,0,0,0,235,10.69,64.36,64.36,0,0,0,205.93.26c-11.06-1.12-22.38,1.31-31.06,8.52C166.94,15.37,162,25.05,160.18,35.1A58.09,58.09,0,0,0,166.65,73l.85-.86A57.39,57.39,0,0,0,84.89,88.28c-7.56,12-10,26.51-5.12,40s15,24.51,26.14,33.16a122.13,122.13,0,0,0,18.4,11.84,82.93,82.93,0,0,0,22.13,8.33c17.75,3.53,35.37-1.34,51.5-8.67,15-6.82,29-15.59,43.88-22.69,12.64-6,26.29-11,40.49-10.65,16.68.42,31.44,8.71,43.54,19.73,5.15,4.69,10.93,9.75,17.87,11.47,5.63,1.41,10.66-.51,15.41-3.57,3.38-2.17,6.61-4.58,10.45-5.91C370.33,161.08,370,159.87,369.24,160.13Z"/><path class="cls-4" d="M147.77,112.08a24.5,24.5,0,0,0-42.1-14.21,38.74,38.74,0,0,0-4.78,6.06,24.46,24.46,0,0,0-3.5,7.21c-1.36,5.27,1.21,9.87,3.84,14.25,4.81,8,10,16.35,17.7,21.9,10.25,7.37,23.6,6.85,35.37,4.08.78-.18.45-1.39-.33-1.2-10,2.35-21.59,3.25-30.94-1.78-7.78-4.19-13.2-11.56-17.81-18.88-1.17-1.85-2.31-3.73-3.43-5.61a26.53,26.53,0,0,1-3.19-6.82c-1.36-5.26,1.59-10.13,4.55-14.26A26.88,26.88,0,0,1,114,93.57a24,24,0,0,1,13.64-1.65,23.53,23.53,0,0,1,18.92,20.16c.09.79,1.35.8,1.25,0Z"/><path class="cls-4" d="M258,75.79Q234,96.54,209,116.05q-7.17,5.61-14.44,11.12c-.63.48,0,1.56.63,1.08q25.41-19.27,49.84-39.8,6.93-5.83,13.8-11.77c.61-.53-.28-1.41-.89-.89Z"/><path class="cls-4" d="M294.47,82.75q-24,20.73-48.93,40.25-7.18,5.61-14.44,11.12c-.64.48,0,1.57.63,1.08q25.4-19.27,49.83-39.8,6.94-5.84,13.8-11.77c.61-.53-.28-1.41-.89-.88Z"/><path class="cls-1" d="M363,232.29c-4.24,5.38-8.55,10.63-12.16,13.88-6.72,6.07-11,5.33-8-13.88l4.6-29.57s1.38-.91,3.43-2.06c5.82-3.25,17.08-8.41,17.76,0C369.52,211.94,375.14,216.86,363,232.29Z"/><path class="cls-1" d="M156,243.73a10,10,0,0,1-1.91.86c-15.39,4.87-24.66-40.34-16.13-48.51,4.35-4.17,10.74-1.47,16.13,2.35a66.2,66.2,0,0,1,10.17,9.22L168,219.19S172.54,234.24,156,243.73Z"/><path class="cls-5" d="M153.7,211l-12.28-8.55s-.82,34.63,7.66,35.13Z"/><path class="cls-2" d="M353.85,206.75s15.06-9.49,11.88,3.34-19.43,27.52-19.43,27.52Z"/><path class="cls-6" d="M500.37,620.68H2.59s-23.24-212.8,69.5-228.34c15.29-2.57,47.83.34,87.34.4,0,.82,0,1.65.11,2.46,2.17,31.46,40.26,56.51,87,56.51s84.85-25.07,87-56.55c.05-.84.09-1.69.09-2.55,65.15-.13,116.3-.27,116.3-.27S530.63,397.94,500.37,620.68Z"/><path class="cls-7" d="M134.76,490.42s-21.08,42.41-24.88,77.95c-3,27.89,5.32,50.47,3.36,52.31"/><path class="cls-7" d="M399.37,494.7c-4.36,1.17,27,48.25,3.29,126"/><path class="cls-4" d="M128.37,82.29c7.57-1.14,15.18,2.2,20.52,7.46,5.5,5.42,8.77,12.63,10.93,19.94a.62.62,0,0,0,1.2-.33c-2.28-7.76-5.83-15.45-11.83-21C143.54,83,135.8,79.92,128,81.08c-.79.12-.46,1.33.33,1.21Z"/><path class="cls-8" d="M266.31,218.76c-1.08-.17-2.15-.34-3.21-.59-.49-.11-1-.23-1.45-.38l-.81-.29c-.17-.06-.16-.06,0,0l-.33-.16a8.28,8.28,0,0,1-1.37-.82c.41.3-.08-.08-.13-.13s-.27-.26-.4-.4l-.25-.29.1.13c-.08-.16-.21-.31-.31-.47s-.22-.38-.32-.58-.25-.67-.05-.1c-.12-.36-.25-.71-.34-1.09,0-.18-.07-.37-.11-.56-.1-.5,0,.48,0-.19,0-.42,0-.83,0-1.25,0-.12.1-.75,0-.09,0-.19.06-.38.1-.57.08-.39.28-.79.35-1.18.06-.18,0-.12-.08.15.05-.11.1-.23.16-.34s.18-.34.27-.5.2-.32.31-.48c.33-.5-.35.36.07-.09a10.44,10.44,0,0,1,1-.91,2.52,2.52,0,0,0,0-3.54,2.57,2.57,0,0,0-3.54,0c-3.42,2.74-4.47,8-3,12a10.12,10.12,0,0,0,4.49,5.36,21.76,21.76,0,0,0,7.51,2.19,2.56,2.56,0,0,0,3.07-1.75,2.51,2.51,0,0,0-1.74-3.07Z"/></g></g></svg>