<svg xmlns="http://www.w3.org/2000/svg" viewBox="0 0 528.56 619.07"><defs><style>.cls-1{fill:#60190e;}.cls-2,.cls-6{fill:#52190e;}.cls-3{fill:#f59b72;}.cls-4{fill:#f2a486;}.cls-5{fill:#394ec9;}.cls-6,.cls-7{stroke:#1d4bb4;stroke-miterlimit:10;}.cls-6{stroke-width:5px;}.cls-7{fill:none;stroke-width:6px;}.cls-8{fill:#560101;}.cls-9{fill:#4a1904;}</style></defs><g id="Layer_2" data-name="Layer 2"><g id="Layer_1-2" data-name="Layer 1"><path class="cls-1" d="M214,25.59c46.64-50.7,148.5-23.5,144,59-1,18-3.43,95.32,58.67,112.5,55.23,15.28,110.61,94.4,106.77,173.78a36.19,36.19,0,0,1-6.91,19.71c-35.89,48.9-229,282.6-457-2.49-32-40-44-148.34,0-177.17s91-15.83,104-65.83S202.54,38.09,214,25.59Z"/><path class="cls-1" d="M221.54,18.48c-75,51.61-72.6,143.32-86.3,162.46s124.05,23.13,124.05,23.13Z"/><path class="cls-2" d="M158.36,158.87l23.15,12.22S202,178.4,186,187.49s-27.68-22.28-27.68-22.28Z"/><path class="cls-3" d="M279,182.59v46.78a72.83,72.83,0,0,1-19.75,2.72c-31.35,0-58.68-20-73-49.5Z"/><path class="cls-3" d="M343,135.09c0,45.69-27.28,84-64,94.28a72.83,72.83,0,0,1-19.75,2.72c-31.35,0-58.68-20-73-49.5a108.57,108.57,0,0,1-10.72-47.5c0-53.57,37.5-97,83.75-97S343,81.52,343,135.09Z"/><path class="cls-2" d="M162.49,149.38c-15.33,17-21.82,39.66-35.2,58a68.34,68.34,0,0,1-11.12,12.11,88.86,88.86,0,0,1-16.43,10.44c-5.85,3.07-11.83,5.93-17.45,9.42a102.91,102.91,0,0,0-38.8,43.74c-.81,1.74,1.77,3.26,2.59,1.51a100.37,100.37,0,0,1,21.13-29.68,97.74,97.74,0,0,1,13.92-11.25,172.2,172.2,0,0,1,17-9.55,119.91,119.91,0,0,0,16.94-10,66.22,66.22,0,0,0,12.12-11.77c7-8.73,12.15-18.71,17.24-28.63,5.78-11.28,11.61-22.76,20.14-32.24,1.29-1.43-.82-3.56-2.12-2.12Z"/><path class="cls-4" d="M197,142.09c0,15.74-9.62,28.5-21.5,28.5S154,157.83,154,142.09c0-5.94.53-16.94,2.87-21.51,3.87-7.54,11.23-7,18.63-7C187.42,113.59,197,126.34,197,142.09Z"/><path class="cls-3" d="M164,163.59s-11.72-42.36-.36-44.68,15.88-.42,16.36,2.68S164,163.59,164,163.59Z"/><path d="M166.54,128.69c3.18-2.46,7.55-6,11.7-3.66,3.63,2.07,5.5,6.44,6.35,10.33.42,1.89,3.31,1.09,2.9-.8-1-4.74-3.59-10.07-8.16-12.35-5.49-2.74-10.67,1.08-14.92,4.36a1.52,1.52,0,0,0,0,2.12,1.55,1.55,0,0,0,2.13,0Z"/><rect x="296.3" y="103.06" width="30.08" height="9.48" rx="4.74" transform="translate(574.52 306.01) rotate(-162.11)"/><path class="cls-3" d="M333,315.59l-26,31-74.5,38.26L154,332.76s24-38.17,32-73.3V182.59h.22c14.35,29.54,41.68,49.5,73,49.5A72.83,72.83,0,0,0,279,229.37v48a11.1,11.1,0,0,0,.88,4.33l4.12,9.82C289,303.38,333,315.59,333,315.59Z"/><path class="cls-1" d="M232.25,43.26C271,47.59,278.75,45,295,71.59c46,75,56,54,56,54s0-87-47-87.5c-20.5-.22-.79-22.93-35.89-11.72S232.25,43.26,232.25,43.26Z"/><path class="cls-2" d="M281.73,256c-2.37-5.53-2.26-12-2.1-17.9a25.47,25.47,0,0,1,2.56-9.85L277,229.91c-40.92,1.68-49-4.86-49-4.86S256,266.33,279,258.46c.85-.29,1.64-.57,2.39-.85C281.51,257.08,281.6,256.54,281.73,256Z"/><path class="cls-2" d="M357.19,221.6c8.1,11.68,16.26,23.34,25.12,34.47a220,220,0,0,0,29,30.7,145.94,145.94,0,0,0,16.76,12.4,193.29,193.29,0,0,0,18.1,9.75c11.75,5.77,24.17,12,31.31,23.48,7.43,12,8.26,26.69,8.38,40.41,0,1.76,0,3.53,0,5.29a1.5,1.5,0,0,0,3,0c0-13.92-.13-28.45-5.78-41.43A45.1,45.1,0,0,0,471,320.42a85.87,85.87,0,0,0-16.71-10.77c-6-3.1-12.15-5.89-18.07-9.14a131.46,131.46,0,0,1-17.64-11.64,197.84,197.84,0,0,1-30.16-30c-9.14-11-17.45-22.69-25.63-34.43l-3-4.38c-1.09-1.58-3.7-.08-2.59,1.51Z"/><path class="cls-5" d="M426.19,280.59c-21.35-17.31-88.91-17.84-134.45-15.87-14.24,30-41.79,50.37-73.45,50.37-25.73,0-48.75-13.45-64.11-34.6C137.4,283.4,117.87,287,95,291.59c-100,20-95,327-95,327H528C535.67,532.65,457,305.59,426.19,280.59Z"/><path class="cls-6" d="M98.77,608.59l19.27-171"/><path class="cls-7" d="M416.17,418.59,446.41,516a49.85,49.85,0,0,1,1.59,22.7l-13,79.92"/><rect x="225.3" y="96.06" width="30.08" height="9.48" rx="4.74" transform="translate(-19.34 78.69) rotate(-17.89)"/><circle cx="254.04" cy="124.59" r="6"/><circle cx="305.54" cy="134.09" r="5.5"/><path d="M281.36,143.28a1.5,1.5,0,0,0,0-3,1.5,1.5,0,0,0,0,3Z"/><path d="M279.69,142.23a81.86,81.86,0,0,1,1.59,10.92,54.09,54.09,0,0,1,.11,10.72c-.45,3.62-4.05,3-5.95.83-2.17-2.46-3.43-5.93-4.28-9a1.5,1.5,0,0,0-2.89.79c1,3.79,2.67,8.18,5.59,10.94,2.5,2.36,6.93,3.22,9.28.14,1.17-1.52,1.29-3.47,1.35-5.32.07-2.39.05-4.77-.08-7.15a88.1,88.1,0,0,0-1.83-13.62c-.4-1.88-3.3-1.08-2.89.8Z"/><path d="M245.62,177.37a44,44,0,0,0,6.14,8.34,83,83,0,0,0,7.35,7.3c5.21,4.46,11.58,7.66,18.59,6.62,1.91-.28,1.1-3.17-.79-2.89-6.32.93-12.19-2.67-16.67-6.73s-9.08-8.75-12-14.15c-.92-1.7-3.51-.19-2.59,1.51Z"/><path class="cls-1" d="M232.25,43.59c-18.71,48.82-17.21,57-53,72.32,0,0-19.69-16.45-3.69-30s31.27-42.35,31.27-42.35Z"/><path class="cls-1" d="M103.15,215.28a1.5,1.5,0,0,0,0-3,1.5,1.5,0,0,0,0,3Z"/><path class="cls-1" d="M153.7,129a1.5,1.5,0,0,0,0-3,1.5,1.5,0,0,0,0,3Z"/><path class="cls-1" d="M152.51,126.79a308.42,308.42,0,0,0-23.32,43.15c-6.1,13.82-10.6,28.33-17.23,41.92a87,87,0,0,1-13.52,20.67c-1.3,1.43.81,3.56,2.12,2.12,10-11,16-24.79,21.36-38.53,2.78-7.18,5.45-14.4,8.48-21.48q4.83-11.29,10.55-22.16,6.51-12.4,14.15-24.18c1.05-1.62-1.55-3.13-2.59-1.51Z"/><path class="cls-1" d="M350.71,116a135,135,0,0,0,26.83,42.06,147.07,147.07,0,0,0,19.32,17c7.36,5.5,15,10.69,21.67,17s12.51,14.05,15,23.12a1.5,1.5,0,0,0,2.89-.8c-4.75-17.1-19.43-28.28-33.08-38.28a178.51,178.51,0,0,1-20.4-16.8,131.07,131.07,0,0,1-29.37-44.13c-.71-1.77-3.62-1-2.89.8Z"/><path class="cls-2" d="M318.39,19c14.52,6.56,24.1,20.57,28.73,35.43,5.89,18.93,4.45,39.12,3.63,58.64s-.81,39.15,6.19,57.61c6.25,16.46,16.69,31.07,29,43.54,13.35,13.51,28.87,24.65,44.67,35.08,1.95,1.29,3.91,2.56,5.87,3.84,1.63,1.05,3.13-1.55,1.52-2.59-15.94-10.34-31.72-21.12-45.57-34.19-12.85-12.13-24-26.32-31-42.61a95.22,95.22,0,0,1-7.1-26.72,196.7,196.7,0,0,1-.7-30.12c.73-19.89,2.48-40.21-2.58-59.71-3.91-15.08-12.52-29.78-26-38.1a44,44,0,0,0-5.08-2.69c-1.75-.79-3.28,1.79-1.52,2.59Z"/><path class="cls-8" d="M439.66,242.34a1.5,1.5,0,0,0,0-3,1.5,1.5,0,0,0,0,3Z"/><path class="cls-8" d="M305.74,64.28c5.16,6.49,8.66,14.09,13.47,20.83a76.76,76.76,0,0,0,16.66,17c1.55,1.16,3-1.45,1.51-2.59a72.48,72.48,0,0,1-16.32-16.93c-4.6-6.68-8.14-14-13.2-20.39-1.21-1.51-3.32.63-2.12,2.13Z"/><path class="cls-8" d="M313.44,48.24Q325,70.31,337.1,92.07c.94,1.69,3.53.18,2.59-1.51Q327.57,68.79,316,46.72c-.9-1.71-3.49-.19-2.59,1.52Z"/><path class="cls-9" d="M152.64,192.86c-.77,20.87-19.19,35.41-35.93,44.71-9.74,5.41-19.92,10-29.35,16a82.06,82.06,0,0,0-23.2,21.35,76.09,76.09,0,0,0-13.25,31.94c-.31,1.88,2.58,2.7,2.89.79a74.11,74.11,0,0,1,11.37-28.92,77.23,77.23,0,0,1,23-22.12c18-11.55,39.18-18.34,54.06-34.37,7.51-8.1,13-18.16,13.42-29.38.07-1.93-2.93-1.93-3,0Z"/></g></g></svg>