<svg xmlns="http://www.w3.org/2000/svg" viewBox="0 0 703 658"><defs><style>.cls-1{fill:#f49b40;}.cls-2{fill:#ef9292;}.cls-3{fill:#492a2a;}.cls-4,.cls-6{opacity:0.63;}.cls-5{fill:#300e0e;}.cls-7{fill:#007ce7;}.cls-8{fill:none;stroke:#001b8b;stroke-miterlimit:10;stroke-width:4px;}</style></defs><g id="Layer_2" data-name="Layer 2"><g id="Layer_1-2" data-name="Layer 1"><rect class="cls-1" width="703" height="658"/><path class="cls-2" d="M313,336.42s-3.12,53.76-12.71,62-1.52,20.25-36.64,25.26,37.68,48.13,37.68,48.13h30.93l78.87-9,22.25-26.07L417,415.64s-20.3,4.62-24.19-17.24-17.47-71-17.47-71Z"/><path class="cls-3" d="M411.4,90.18s-110.31-95.36-177.13,0-46.26,215-80.52,229.51c0,0,121.64,11.31,138.77,6.46S385,319.69,385,319.69s94.23.8,111.36,7.67c0,0-17.13-108.65-20.56-139.78S474.79,85.33,411.4,90.18Z"/><path class="cls-2" d="M248,150.14c0,21.71,9.17,141.37,36.69,176,27,34,88.45,35.21,121.35-6.39S432.93,146.1,432.93,146.1Z"/><path class="cls-3" d="M399.65,137.21s-127.81,67.54-157.1,72.86c-58.13,10.58-6.62-88.91-6.62-88.91l145-18Z"/><path class="cls-3" d="M365.56,142.56c20.05,18.71,16,37.9,50.14,45s33.42-16.28,33.42-16.28l-15.76-54.82Z"/><g class="cls-4"><path class="cls-5" d="M374.62,120.79c-19.15,9.7-38.3,19.4-57.8,28.38-18.73,8.62-37.82,16.92-57.89,21.88a138.29,138.29,0,0,1-33.76,4.28,1.5,1.5,0,0,0,0,3c20.62.1,40.78-5.2,60-12.43,19.92-7.5,39.21-16.73,58.3-26.12,10.95-5.38,21.83-10.89,32.71-16.4,1.72-.88.21-3.47-1.51-2.59Z"/></g><g class="cls-4"><path class="cls-5" d="M379.84,95.67A238.51,238.51,0,0,1,335.23,111q-11.36,2.69-23,4.28A147.51,147.51,0,0,1,290,117c-7.87-.14-15.8-1.57-22.46-6-1.62-1.07-3.12,1.53-1.52,2.59,12.49,8.28,28.65,6.83,42.79,5.14a242.08,242.08,0,0,0,47.27-10.5,244.26,244.26,0,0,0,25.3-10c1.75-.8.23-3.39-1.51-2.59Z"/></g><g class="cls-4"><path class="cls-5" d="M384.68,148.62c11.64,9.52,23.91,19.45,39,22.62a43,43,0,0,0,12.8.81c1.91-.17,1.93-3.18,0-3-19.39,1.79-35.56-11-49.67-22.55-1.48-1.21-3.62.9-2.12,2.12Z"/></g><g class="cls-4"><path class="cls-5" d="M436.17,317.33a358.79,358.79,0,0,0,18.33-67.21q2.91-17.06,4.17-34.34a266.26,266.26,0,0,0,.64-34.13c-.7-12.46-2.87-24.86-7.85-36.37-.57-1.32-2.51-.18-1.94,1.14,8.9,20.56,8.52,43.91,7.14,65.85a355.93,355.93,0,0,1-10.92,67.79A359.48,359.48,0,0,1,434,316.73c-.52,1.35,1.65,1.94,2.17.6Z"/></g><g class="cls-4"><path class="cls-5" d="M469.84,312.34q1.05-24.61.39-49.25t-3.11-49.4q-1.35-13.75-3.25-27.45c-.19-1.42-2.36-.82-2.17.6a700.21,700.21,0,0,1,6.54,97.92q-.06,13.78-.65,27.58c-.06,1.44,2.19,1.44,2.25,0Z"/></g><g class="cls-4"><path class="cls-5" d="M242.37,213.43c2.78,28.52,5.57,57.86-.42,86.17a122.14,122.14,0,0,1-7.16,22.9c-.56,1.32,1.38,2.47,1.94,1.14,11.55-27,12.05-56.77,10-85.57-.58-8.23-1.35-16.44-2.15-24.64-.14-1.43-2.39-1.44-2.25,0Z"/></g><g class="cls-4"><path class="cls-5" d="M265.08,315.23a174.45,174.45,0,0,1-2.26-43.65c.14-1.93-2.86-1.92-3,0A178,178,0,0,0,262.18,316c.35,1.9,3.24,1.1,2.9-.8Z"/></g><g class="cls-4"><path class="cls-5" d="M287.4,74.84c-16.87.75-28.21,15.89-36.61,28.81A261.76,261.76,0,0,0,226,153.23a402.28,402.28,0,0,0-15.68,52.86c-3.95,17.14-7.38,34.41-12.27,51.31-4.8,16.63-11.09,33-20.61,47.5q-1.77,2.7-3.67,5.29c-.85,1.17,1.1,2.29,2,1.14,10.08-13.8,17-29.55,22.2-45.76,5.3-16.53,8.88-33.55,12.67-50.48,3.93-17.58,8.3-35,14.22-52.06a276.19,276.19,0,0,1,22.93-50.14c4.39-7.41,9.05-14.83,14.72-21.33,5.16-5.92,11.46-11.4,19.17-13.55a26,26,0,0,1,5.81-.92c1.44-.07,1.45-2.32,0-2.25Z"/></g><g class="cls-4"><path d="M333.76,210.09c-9.56-6.38-21.46-13.41-33.25-8.57a3.08,3.08,0,0,0-2.09,3.69c.39,1.41,2.18,2.71,3.69,2.09,10.26-4.21,20.35,2.45,28.62,8a3,3,0,0,0,4.1-1.07,3.06,3.06,0,0,0-1.07-4.11Z"/></g><g class="cls-4"><path d="M371.79,215.27c8.26-5.52,18.35-12.18,28.62-8,1.5.62,3.3-.67,3.69-2.09a3.07,3.07,0,0,0-2.1-3.69c-11.78-4.84-23.68,2.19-33.24,8.57a3.09,3.09,0,0,0-1.08,4.11,3,3,0,0,0,4.11,1.07Z"/></g><circle class="cls-6" cx="312.98" cy="231.17" r="5.72"/><circle class="cls-6" cx="392.84" cy="227.09" r="5.72"/><g class="cls-4"><path d="M348.13,230.82a132.33,132.33,0,0,0-8.45,23.9c-.79,3.23-2.09,8.18,2,9.78a3.64,3.64,0,0,0,4.06-1c.95-1,1.23-2.52,2.15-3.57,1.26-1.45-.85-3.58-2.13-2.12a14.79,14.79,0,0,0-1.75,2.91c-.5.92-1.26,1.53-2,.32s0-3.29.31-4.63c.39-1.67.83-3.32,1.29-5a128.45,128.45,0,0,1,7.07-19.11c.81-1.74-1.78-3.27-2.59-1.52Z"/></g><g class="cls-4"><path d="M324.34,292.41a33.93,33.93,0,0,0,6.15,5.32,31.87,31.87,0,0,0,3.53,2.06,11,11,0,0,0,4,1.53c1.4.05,2.26-1,3.21-1.86a39.11,39.11,0,0,1,3.39-2.78,42.89,42.89,0,0,1,7.68-4.45c1.75-.79.23-3.38-1.52-2.59a43.27,43.27,0,0,0-6.61,3.7c-1.06.72-2.09,1.49-3.09,2.3-.5.41-1,.83-1.49,1.26s-.95,1.13-1.4,1.3c-.67.26-2.3-.83-3-1.19a30.09,30.09,0,0,1-8.71-6.72c-1.31-1.43-3.42.69-2.12,2.12Z"/></g><path class="cls-3" d="M379.3,341.91s-31.13,13.73-43.6,9.24c0,0,31,18.39,47.83,7Z"/><path class="cls-7" d="M524.4,421c-34.38-25.3-83.19-35-134.31-36.4a42.44,42.44,0,0,1-40.66,54.64c-23.45,0-43.87-19-43.87-42.47,0-2.82-.81-5.28-.28-8-132.92,7.8-171,58.95-171,58.95-32.42,23.73-39.7,209.42-39.7,209.42H604.13S636.22,503.27,524.4,421Z"/><path class="cls-8" d="M235.76,488.17s-36.44,34.58-19,84.5c7.69,22.08.44,84.49.44,84.49"/><path class="cls-8" d="M475.19,495.52c-1.33,4,28.08,23.18,14.71,67.52-13.67,45.34-6.11,94.12-6.11,94.12"/></g></g></svg>