<svg xmlns="http://www.w3.org/2000/svg" viewBox="0 0 703 659.6"><defs><style>.cls-1{fill:#f9d2d2;}.cls-2{fill:#c48a55;}.cls-3{fill:#995526;}.cls-4{fill:#fff;stroke:#824923;stroke-width:4px;}.cls-4,.cls-8{stroke-miterlimit:10;}.cls-5{fill:#30261d;}.cls-6{fill:#bc6e39;}.cls-7{fill:#039393;}.cls-8{fill:none;stroke:#007461;stroke-width:3px;}.cls-9{fill:#824923;}</style></defs><g id="Layer_2" data-name="Layer 2"><g id="Layer_1-2" data-name="Layer 1"><rect class="cls-1" width="703" height="658"/><path class="cls-2" d="M433.37,433c-2.18,31.48-40.3,56.55-87,56.55s-84.8-25.05-87-56.52c23.42-18.62,35.93-53.7,39.92-66.68V346a62.75,62.75,0,0,0,17.6,2.5h70.85a62.89,62.89,0,0,0,22.95-4.31v5.53c-.23,6.84.37,32.23.14,34.54.23,1.39,1,6.24,1.11,6.57C417.66,413.36,424.41,423.52,433.37,433Z"/><path class="cls-3" d="M410.7,344.2v35.52l-.23,0a192,192,0,0,1-49.91-16.31,148.29,148.29,0,0,1-25.2-15.52S407.54,349.84,410.7,344.2Z"/><path class="cls-2" d="M447.25,240.55s1.38-.91,3.43-2.06V208.22c-5.78,1.24-13-.79-24.07-11-40.26-37.23-74.69-15.68-110.23,3.5-20,10.79-40.41,20.83-62.41,19.2v16.38a66.42,66.42,0,0,1,10.17,9.21L267.8,257s4.58,15.05-11.93,24.53a8.6,8.6,0,0,1-1.9.86v3.15a62.89,62.89,0,0,0,62.93,62.95h70.85a62.89,62.89,0,0,0,62.93-62.95V284c-6.72,6.08-11,5.34-8-13.88Zm-133.51.65a4.74,4.74,0,1,1,4.74-4.74A4.74,4.74,0,0,1,313.74,241.2Zm69.81,69.39c-4.82,6.25-11.07,11.08-19.15,12.18-9.43,1.26-17.87-4.35-24.87-12.18-13-14.53-21-36.69-21-36.69H398S394.74,296.05,383.55,310.59ZM407.9,241.2a4.74,4.74,0,1,1,4.74-4.74A4.74,4.74,0,0,1,407.9,241.2Z"/><path class="cls-2" d="M267.8,257s4.58,15.05-11.93,24.53a8.6,8.6,0,0,1-1.9.86V236.26a66.42,66.42,0,0,1,10.17,9.21Z"/><circle class="cls-2" cx="313.74" cy="236.46" r="4.74"/><circle class="cls-2" cx="407.9" cy="236.46" r="4.74"/><path class="cls-2" d="M447.25,240.55s1.38-.91,3.43-2.06V284c-6.72,6.08-11,5.34-8-13.88Z"/><path d="M345.22,213.11a146.89,146.89,0,0,0-20.7-11.79c-6.69-3.11-14.67-6.3-21.7-2.28a11.56,11.56,0,0,0-6,9.14,2.51,2.51,0,0,0,2.5,2.5,2.56,2.56,0,0,0,2.5-2.5c.22-3,3.1-5,5.74-5.73,3.9-1.06,8.15.43,11.72,2a137.45,137.45,0,0,1,23.42,13,2.52,2.52,0,0,0,3.42-.9,2.55,2.55,0,0,0-.89-3.42Z"/><path d="M382.09,217.43a137.54,137.54,0,0,1,23.43-13c3.57-1.52,7.82-3,11.72-2,2.64.72,5.51,2.78,5.74,5.73a2.57,2.57,0,0,0,2.5,2.5,2.52,2.52,0,0,0,2.5-2.5c-.57-7.33-7.91-11.55-14.75-11a35,35,0,0,0-11.49,3.47q-5.39,2.41-10.55,5.29-6,3.31-11.62,7.17a2.57,2.57,0,0,0-.9,3.42,2.51,2.51,0,0,0,3.42.9Z"/><circle cx="407.9" cy="236.46" r="4.74"/><circle cx="313.74" cy="236.46" r="4.74"/><path class="cls-4" d="M398,273.9s-3.28,22.15-14.47,36.69c-4.82,6.25-11.07,11.08-19.15,12.18-9.43,1.26-17.87-4.35-24.87-12.18-13-14.53-21-36.69-21-36.69Z"/><path class="cls-5" d="M254.14,195.48c-3.95-1.06-7.86-2.27-11.73-3.57-.77-.26-1.09,1-.33,1.2,3.87,1.3,7.78,2.52,11.72,3.58a.63.63,0,0,0,.34-1.21Z"/><path class="cls-5" d="M394.44,127.42q-21.92,13.63-42.84,28.77-6,4.34-11.92,8.81c-.63.47,0,1.56.63,1.07q20.61-15.52,42.26-29.62,6.21-4,12.5-7.95c.68-.42.05-1.5-.63-1.08Z"/><path d="M469.25,198.56c-6.93,2.32-11.8,8.21-18.57,9.66-5.78,1.24-13-.79-24.07-11-40.26-37.23-74.69-15.68-110.23,3.5-20,10.79-40.41,20.83-62.41,19.2A64.88,64.88,0,0,1,234,215.07c-25.61-10.58-57.15-35.37-56.39-64.66.46-18.17,13.32-36.65,31.62-45.4a57,57,0,0,1,57.78,5.5c-13.11-24-7.62-51.8,9.64-64.66,17.57-13.07,41.7-6.43,55,1.39a58.93,58.93,0,0,1,22,23.38c4.67-13.88,17.2-22.18,28.9-20.64,10.83,1.44,16.9,10.82,17.87,12.4,13.16-11.26,30.22-16.22,44-11,20.77,7.83,33.82,38.54,20.64,68.78,8.62-1.36,32.11-4.06,41.27,8.24C519.66,146.23,498,188.92,469.25,198.56Z"/><path class="cls-5" d="M469.08,198c-6.87,2.4-12.15,8.78-19.5,9.83-5.49.78-10.76-1.95-15.12-5a132.21,132.21,0,0,1-10.28-8.63,90.67,90.67,0,0,0-10.52-7.88,64.87,64.87,0,0,0-20.25-8.69c-27.46-6.25-53.34,9.56-76.5,22.08C301.06,208.26,284.38,217,266.18,219a64.31,64.31,0,0,1-26.62-2.58,99.86,99.86,0,0,1-20-9.3c-23.12-13.59-48.25-38.61-39.43-67.95,4.41-14.68,15.72-27.07,29.47-33.63a56.4,56.4,0,0,1,47-.37,59.82,59.82,0,0,1,10.17,5.87c.54.38,1.13-.35.86-.86C257.46,91.51,257.19,65.81,272.9,50c15.43-15.57,40.4-12.56,58-2.46a58.47,58.47,0,0,1,22.27,23.43.63.63,0,0,0,1.14-.14c2.9-8.42,9.15-15.87,17.67-19a22.24,22.24,0,0,1,22.95,4.85,28.79,28.79,0,0,1,5,6,.63.63,0,0,0,1,.13c12.51-10.61,31.28-17.51,46.84-9.3,13.22,7,20.48,22,21.81,36.44a61.45,61.45,0,0,1-5,29.88.63.63,0,0,0,.71.91c7.72-1.21,15.74-1.77,23.5-.6,8.21,1.24,16.52,4.89,19.55,13.19,2.62,7.21,1.34,15.4-.94,22.52a72.18,72.18,0,0,1-13.47,24c-6.62,7.91-15,14.73-24.85,18.09-.75.26-.43,1.47.34,1.2,18-6.14,32-23.14,38.37-40.61,2.72-7.41,4.4-15.92,2.32-23.71-2.2-8.26-9-13.13-17.05-15.12-9.13-2.26-18.9-1.62-28.11-.17l.71.92c6.95-16.15,7.56-35.16-.81-50.93A41.4,41.4,0,0,0,450.1,53.42,34.57,34.57,0,0,0,427.52,49c-10.23,1.36-19.69,6.3-27.5,12.91l1,.13c-3.47-5.61-9-10.33-15.41-12.1-8.53-2.35-17.53.89-23.82,6.79a33.66,33.66,0,0,0-8.68,13.7l1.14-.15a60.21,60.21,0,0,0-19.36-21.79,64.46,64.46,0,0,0-29.11-10.42c-11.06-1.12-22.38,1.31-31.06,8.52C266.78,53.2,261.85,62.87,260,72.92a58.08,58.08,0,0,0,6.47,37.9l.85-.85a57.37,57.37,0,0,0-82.61,16.13c-7.56,12-9.95,26.51-5.12,40s15,24.5,26.14,33.16a123.72,123.72,0,0,0,18.4,11.84,82.93,82.93,0,0,0,22.13,8.33c17.75,3.53,35.37-1.35,51.5-8.67,15-6.82,29-15.59,43.88-22.69,12.64-6,26.29-11,40.49-10.65,16.68.42,31.44,8.71,43.54,19.73,5.15,4.69,10.93,9.74,17.87,11.47,5.63,1.4,10.66-.51,15.4-3.57,3.38-2.18,6.62-4.58,10.46-5.92C470.17,198.9,469.85,197.69,469.08,198Z"/><path class="cls-5" d="M247.61,149.91a24.5,24.5,0,0,0-42.1-14.21,38.28,38.28,0,0,0-4.78,6.06,24.74,24.74,0,0,0-3.51,7.21c-1.35,5.26,1.22,9.87,3.85,14.24,4.81,8,10,16.36,17.7,21.91,10.25,7.37,23.6,6.85,35.37,4.08.78-.19.45-1.39-.34-1.21-10,2.36-21.58,3.25-30.93-1.78-7.78-4.18-13.2-11.55-17.81-18.87q-1.76-2.79-3.43-5.61a26.72,26.72,0,0,1-3.2-6.82c-1.35-5.26,1.6-10.14,4.56-14.26a27,27,0,0,1,10.81-9.26,24,24,0,0,1,13.64-1.64,23.54,23.54,0,0,1,18.92,20.16c.09.79,1.34.8,1.25,0Z"/><path class="cls-5" d="M357.8,113.62q-24,20.75-48.94,40.26-7.17,5.61-14.44,11.12c-.63.48,0,1.56.63,1.07q25.41-19.27,49.84-39.79,6.93-5.84,13.79-11.78c.61-.52-.27-1.4-.88-.88Z"/><path class="cls-5" d="M394.31,120.57q-24,20.75-48.94,40.26-7.17,5.61-14.44,11.12c-.63.48,0,1.56.64,1.07q25.4-19.28,49.83-39.79,6.94-5.83,13.8-11.77c.61-.53-.28-1.41-.89-.89Z"/><path class="cls-2" d="M462.84,270.11c-4.24,5.39-8.55,10.63-12.16,13.88-6.72,6.08-11,5.34-8-13.88l4.6-29.56s1.38-.91,3.43-2.06c5.82-3.25,17.08-8.41,17.76,0C469.36,249.76,475,254.69,462.84,270.11Z"/><path class="cls-2" d="M255.87,281.55a8.6,8.6,0,0,1-1.9.86c-15.39,4.87-24.66-40.33-16.13-48.5,4.35-4.17,10.74-1.48,16.13,2.35a66.42,66.42,0,0,1,10.17,9.21L267.8,257S272.38,272.07,255.87,281.55Z"/><path class="cls-6" d="M253.54,248.83l-12.29-8.55s-.81,34.63,7.67,35.13Z"/><path class="cls-3" d="M453.69,244.57s15.06-9.48,11.88,3.35-19.43,27.52-19.43,27.52Z"/><path class="cls-7" d="M600.21,658.5H102.43s-23.24-212.8,69.5-228.33c15.29-2.57,47.83.34,87.34.39,0,.83,0,1.65.11,2.46,2.17,31.47,40.26,56.52,87,56.52s84.84-25.07,87-56.55c.05-.85.09-1.69.09-2.55,65.15-.13,116.3-.27,116.3-.27S630.47,435.77,600.21,658.5Z"/><path class="cls-8" d="M234.6,528.24s-21.08,42.41-24.88,78c-3,27.89,5.32,50.47,3.36,52.31"/><path class="cls-8" d="M499.21,532.52c-4.36,1.18,27,48.26,3.29,126"/><path class="cls-5" d="M228.21,120.11c7.57-1.13,15.18,2.21,20.52,7.47,5.5,5.42,8.77,12.62,10.93,19.94a.62.62,0,0,0,1.2-.34c-2.28-7.75-5.83-15.44-11.83-21-5.65-5.28-13.39-8.39-21.15-7.23-.8.12-.46,1.32.33,1.2Z"/><path class="cls-9" d="M366.14,256.58c-1.07-.17-2.14-.34-3.2-.58-.49-.11-1-.24-1.45-.39-.27-.08-.55-.18-.82-.28s-.15-.06,0,0l-.33-.15a9.93,9.93,0,0,1-1.37-.82c.41.29-.08-.09-.13-.13s-.27-.27-.4-.41-.17-.19-.25-.28l.1.13a3.82,3.82,0,0,0-.31-.47l-.32-.58c-.07-.14-.25-.68-.05-.1a10.56,10.56,0,0,1-.34-1.09c0-.19-.07-.37-.11-.56-.11-.5,0,.47,0-.19,0-.42,0-.83,0-1.25,0-.12.1-.75,0-.1,0-.19.06-.37.1-.56.08-.4.28-.8.34-1.19.07-.17,0-.12-.07.16a3.54,3.54,0,0,1,.16-.34,4.82,4.82,0,0,1,.27-.5c.1-.17.2-.32.31-.48.33-.51-.35.35.07-.09a10.55,10.55,0,0,1,1-.92,2.5,2.5,0,0,0,0-3.53,2.57,2.57,0,0,0-3.54,0c-3.42,2.74-4.47,8-2.95,12a10.2,10.2,0,0,0,4.49,5.36,21.76,21.76,0,0,0,7.51,2.19,2.57,2.57,0,0,0,3.07-1.75,2.54,2.54,0,0,0-1.75-3.08Z"/></g></g></svg>